<?xml version="1.0" encoding="UTF-8"?>
<svg id="Layer_1" data-name="Layer 1" xmlns="http://www.w3.org/2000/svg" viewBox="0 0 400 400">
  <defs>
    <style>
      .cls-1 {
        fill: #4d4d4d;
      }
    </style>
  </defs>
  <g>
    <path class="cls-1" d="M64.4,175.3c0-13.5,18-33.9,36.3-51-23.4,0-38.1-7.2-38.1-27,0-24.6,24-30,70.5-30,49.5,0,66.9,8.4,66.9,29.1,0,16.2-18.9,34.2-39.6,51,24.3,0,41.7,9.9,41.7,25.2,0,18.3-15.6,31.2-70.8,31.2s-66.9-6.6-66.9-28.5ZM80.9,98.8c0-9.9,6.9-12.9,52.5-12.9,2.1,0,3.3-1.2,3.3-2.4s-.9-2.4-3.3-2.4c-49.8,0-57,4.2-57,17.7,0,1.8,1.2,2.7,2.4,2.7s2.1-.9,2.1-2.7ZM82.4,178.9c0-8.1,6.6-15.6,39-49.8,1.8-2.1.6-4.5-1.2-4.5-.9,0-1.5.6-2.4,1.5-33,35.1-40.2,43.5-40.2,52.8,0,1.5,1.2,2.4,2.4,2.4s2.4-.9,2.4-2.4ZM149.9,83.19c0-1.8-1.8-2.4-3.3-2.4s-3,.9-3,2.7,1.8,2.4,3.3,2.4c1.8,0,3-.9,3-2.7Z"/>
    <path class="cls-1" d="M189.2,136.9c0-56.7,11.4-71.1,33-71.1,27,0,34.2,17.7,34.2,62.4,0,4.5,2.4,7.5,6.9,7.5,4.8,0,7.2-3,7.2-7.5,0-45,11.1-62.4,35.4-62.4s31.5,14.4,31.5,71.1c0,42.6-30.9,68.1-74.1,68.1s-74.1-26.4-74.1-68.1ZM209,107.5c0-15.6,7.2-23.4,16.5-23.4,1.8,0,3-1.2,3-2.4s-1.2-2.4-3-2.4c-12.3,0-21,9.6-21,28.2,0,2.1.9,3,2.1,3s2.4-.9,2.4-3ZM287,132.1c.3-2.1-1.2-3-2.4-3s-2.1.6-2.4,2.4c-1.8,10.2-9.3,16.2-17.7,16.2-3.9,0-5.4-.6-6.3-.6-1.5,0-2.1.9-2.1,1.8,0,2.7,3.6,3.6,8.1,3.6,10.8,0,20.4-7.5,22.8-20.4ZM289.4,107.5c0-15.6,5.4-23.4,16.8-23.4,2.1,0,3.6-1.2,3.6-2.4,0-1.5-1.2-2.4-3.6-2.4-15,0-21,9.6-21,28.2,0,1.8,1.2,2.4,2.1,2.4,1.2,0,2.1-.9,2.1-2.4Z"/>
  </g>
  <path class="cls-1" d="M314.56,195.01c-17.65,0-24.8,19.8-32.2,43.5-6.68-26.4-14.55-43.5-33.63-43.5s-27.91,20.4-33.4,43.2c-7.15-21.6-14.55-43.2-32.2-43.2h-5.08c-24.3,0-35.4,17.4-35.4,62.4,0,4.5-2.4,7.5-7.2,7.5-4.5,0-6.9-3-6.9-7.5,0-44.7-7.2-62.4-34.2-62.4-21.6,0-33,14.4-33,71.1,0,41.7,30,68.1,74.1,68.1,21.26,0,39.54-6.18,52.62-17.53,8.36,10.62,18.28,17.53,29.41,17.53,14.31,0,24.33-12.3,31.49-30,6.44,16.5,17.17,30,31.72,30,34.59,0,57.97-68.7,57.97-105.6,0-18.6-8.83-33.6-24.1-33.6ZM97.64,213.31c-9.3,0-16.5,7.8-16.5,23.4,0,2.1-1.2,3-2.4,3s-2.1-.9-2.1-3c0-18.6,8.7-28.2,21-28.2,1.8,0,3,1.2,3,2.4s-1.2,2.4-3,2.4ZM159.14,261.31c-2.4,12.9-12,20.4-22.8,20.4-4.5,0-8.1-.9-8.1-3.6,0-.9.6-1.8,2.1-1.8.9,0,2.4.6,6.3.6,8.4,0,15.9-6,17.7-16.2.3-1.8,1.2-2.4,2.4-2.4s2.7.9,2.4,3ZM161.55,236.71c0,1.35-.73,2.21-1.74,2.37-.12.02-.24.03-.36.03-.9,0-2.1-.6-2.1-2.4,0-6.9.83-12.57,2.64-16.96,3.05-7.44,8.93-11.24,18.36-11.24,1.2,0,2.1.22,2.7.64.6.41.9,1.01.9,1.76,0,1.2-1.5,2.4-3.6,2.4-1.81,0-3.48.2-4.99.59-7.99,2.09-11.81,9.69-11.81,22.81ZM250.39,213.61c-10.74,0-15.51,9.6-22.43,29.4-2.38,6.6-6.67,11.4-12.4,11.4-2.39,0-4.29-1.8-4.29-3.3,0-1.2.71-2.1,1.67-2.1.71,0,1.43,1.2,3.1,1.2,3.81,0,6.92-3.9,8.58-9,6.92-21,13.12-32.4,25.77-32.4,1.43,0,2.38,1.2,2.38,2.4s-.95,2.4-2.38,2.4ZM317.19,213.61c-9.54,0-12.41,6-18.85,24.3-4.05,11.4-10.02,16.2-16.69,16.2-2.39,0-4.3-1.8-4.3-3.3,0-1.2.72-2.1,1.67-2.1.72,0,1.43,1.2,3.1,1.2,4.77,0,9.54-4.2,12.88-13.8,7.4-21.3,11.69-27.3,22.19-27.3,1.67,0,2.38,1.2,2.38,2.4s-.95,2.4-2.38,2.4Z"/>
</svg>